<svg xmlns="http://www.w3.org/2000/svg" width="156.663" height="140.573" viewBox="0 0 156.663 140.573">
  <g id="Art" transform="translate(-30.837 -338.374)">
    <path id="Tracé_214" data-name="Tracé 214" d="M492.464-535.811c-55.74-6.593-78.863-35.162-90.95,6.593s-5.494,78.564,63.181,62.632S548.2-529.218,492.464-535.811Z" transform="matrix(0.875, 0.485, -0.485, 0.875, -540.429, 628.417)" fill="#fff"/>
    <g id="undraw_art_lover_re_fn8g" transform="translate(37.293 344.69)">
      <path id="Tracé_160" data-name="Tracé 160" d="M565.245,226.035H489.8a1.69,1.69,0,0,1-1.688-1.688V116.34a1.689,1.689,0,0,1,1.688-1.688h75.446a1.69,1.69,0,0,1,1.688,1.688V224.347A1.69,1.69,0,0,1,565.245,226.035Z" transform="translate(-461.314 -114.652)" fill="#3f3d56"/>
      <path id="Tracé_161" data-name="Tracé 161" d="M570.068,230.858H497.8a1.689,1.689,0,0,1-1.688-1.688V124.34a1.689,1.689,0,0,1,1.687-1.688h72.27a1.69,1.69,0,0,1,1.688,1.688V229.17A1.69,1.69,0,0,1,570.068,230.858Z" transform="translate(-467.726 -121.064)" fill="#fff"/>
      <path id="Tracé_162" data-name="Tracé 162" d="M552.1,451.774c-6.429-8.487-3.879-18.173-7.646-24.93-14.435-25.9,3.34-23.512,23.436-18.475l.048.559c-12.791,1.974-21.2,8.557-23.079,18.061-1.458,7.386,1.218,16.046,7.535,24.385Z" transform="translate(-502.26 -347.476)" fill="#f0f0f0"/>
      <path id="Tracé_163" data-name="Tracé 163" d="M549.656,214.762l-.134-.533c7.176-3.253,6.56-12.944,12.98-15.157,48.908-16.857.63-18.758-10.229-27.675-9.711-7.974-20.294-17.244-33.744-22.019l.107-.544c13.509,4.8,25.551,12.656,33.907,22.133,8.4,9.525,12.079,19.557,10.363,28.248C561.554,206.07,556.972,211.445,549.656,214.762Z" transform="translate(-485.693 -142.048)" fill="#f0f0f0"/>
      <path id="Tracé_164" data-name="Tracé 164" d="M571.622,341.62c-3.279-.259.59-2.429.849-5.709a5.956,5.956,0,0,1,11.876.938C584.088,340.129,574.9,341.879,571.622,341.62Z" transform="translate(-527.193 -287.584)" fill="#6c63ff"/>
      <path id="Tracé_165" data-name="Tracé 165" d="M697.694,236.992a5.957,5.957,0,0,1-5.469-6.407c.259-3.279-6.253-5.473-2.974-5.214s15.109,2.873,14.85,6.152a5.957,5.957,0,0,1-6.407,5.469Z" transform="translate(-621.778 -203.372)" fill="#6c63ff"/>
      <path id="Tracé_166" data-name="Tracé 166" d="M627.395,243.385a2.658,2.658,0,0,1-.393,2.706,3.968,3.968,0,0,1-2.741,1.458,8.436,8.436,0,0,1-3.389-.279,3.048,3.048,0,0,1-2.379-2.134,1.514,1.514,0,0,1,1-1.831,1.953,1.953,0,0,1,1.849.5,2.318,2.318,0,0,1,.194,2.64,3.43,3.43,0,0,1-2.546,1.66,7.279,7.279,0,0,1-3.626-.494c-1.259-.448-2.48-1.005-3.713-1.518a32.48,32.48,0,0,0-7.449-2.335c-3.951-.608-8.641.339-11.059,3.8a9.215,9.215,0,0,0-1.395,6.446,14.223,14.223,0,0,0,2.7,6.43,27.315,27.315,0,0,0,2.366,2.831,1.95,1.95,0,0,1,.45,2.124c-.749,1.841-3.745,1.254-3.969-.643a2.974,2.974,0,0,1,.981-2.335,4.623,4.623,0,0,1,2.465-1.194,6.968,6.968,0,0,1,5.485,1.648,10.474,10.474,0,0,1,3.122,5.656,34.522,34.522,0,0,1,.65,7.268,28.073,28.073,0,0,0,.865,7.419,18.334,18.334,0,0,0,2.656,5.406,19.15,19.15,0,0,0,9.546,7.074,17.536,17.536,0,0,0,2.856.669c.379.056.425-.538.047-.594a18.444,18.444,0,0,1-14.143-11.552,22.707,22.707,0,0,1-1.211-7.465,45.423,45.423,0,0,0-.553-7.757,11.927,11.927,0,0,0-3.024-6.185,7.726,7.726,0,0,0-5.646-2.25,4.842,4.842,0,0,0-4.573,3.125,2.564,2.564,0,0,0,.608,2.605,3,3,0,0,0,3.076.65,2.492,2.492,0,0,0,1.383-3.049,3.032,3.032,0,0,0-.747-1.142,18.876,18.876,0,0,1-4.211-6.369,10,10,0,0,1-.042-7.111c1.768-4.259,6.9-5.539,11.076-4.943a32.509,32.509,0,0,1,7.857,2.484c1.294.541,2.579,1.142,3.921,1.556a7.014,7.014,0,0,0,3.727.253,3.9,3.9,0,0,0,2.6-1.9,3.011,3.011,0,0,0-.008-2.965c-.817-1.293-3.073-1.583-3.9-.132a2.64,2.64,0,0,0,.439,3,5.228,5.228,0,0,0,3.158,1.446c2.175.349,4.854.075,6.018-2.074a3.139,3.139,0,0,0,.163-2.866.3.3,0,0,0-.537.259Z" transform="translate(-544.301 -217.241)" fill="#3f3d56"/>
      <path id="Tracé_167" data-name="Tracé 167" d="M649.884,404.7c-3.477-.275-12.776,4.484-15.293,2.437q-.472-.381-.913-.8a16.388,16.388,0,0,1-2.532-3.024c-.125-.187-.243-.376-.358-.566a16.692,16.692,0,0,1-1.062-2.105c-.053-.132-.107-.265-.16-.4a16.58,16.58,0,0,1,28.153-16.653c.135.158.265.32.394.485a16.515,16.515,0,0,1,2.829,5.511s0,0,0,0a16.644,16.644,0,0,1,.041,9.187v0c-.019.066-.038.132-.059.2C658.753,406.327,657.831,405.324,649.884,404.7Z" transform="translate(-573.788 -325.454)" fill="#6c63ff"/>
      <path id="Tracé_168" data-name="Tracé 168" d="M634.32,418.948a.308.308,0,0,1-.075-.008c-.053-.132-.107-.265-.16-.4a.3.3,0,0,1,.282-.187,4.066,4.066,0,0,0,.894-.1c2.547-.575,4.031-3.183,4.667-5.51.781-2.848.792-5.908,2.2-8.565a7.52,7.52,0,0,1,2.348-2.744,5.345,5.345,0,0,1,3.723-.871c3.073.406,5.316,2.772,8.169,3.746a5.2,5.2,0,0,0,3.6.044,3.187,3.187,0,0,0,2.116-2.251.288.288,0,0,1,.15-.211c.135.158.266.32.394.485a2.9,2.9,0,0,1-.2.576,4.146,4.146,0,0,1-2.589,2.072,5.943,5.943,0,0,1-3.8-.2c-2.859-1.025-5.21-3.556-8.366-3.714-2.736-.136-4.626,2.112-5.536,4.458-1.126,2.9-.958,6.156-2.222,9.016C638.929,416.834,636.936,418.937,634.32,418.948Z" transform="translate(-578.307 -343.756)" fill="#3f3d56"/>
      <path id="Tracé_169" data-name="Tracé 169" d="M640.6,451.016c-.125-.187-.243-.376-.358-.566a.248.248,0,0,1,.2-.05,10.079,10.079,0,0,0,7.188-1.916,9.956,9.956,0,0,0,2.328-2.4,16.959,16.959,0,0,0,1.506-3.129,7.554,7.554,0,0,1,1.832-2.891,5.024,5.024,0,0,1,3.209-1.143c2.763-.082,5.172,1.488,7.861,1.812a5.027,5.027,0,0,0,3.417-.7,2.987,2.987,0,0,0,1.49-2.575c-.016-.36.508-.336.585-.019a.313.313,0,0,1,.009.066,3.547,3.547,0,0,1-1.756,3.02,5.663,5.663,0,0,1-3.975.775c-2.694-.384-5.184-2.015-7.972-1.769a4.183,4.183,0,0,0-3.023,1.56,13.276,13.276,0,0,0-1.574,3.184,11.037,11.037,0,0,1-1.779,3.008,10.9,10.9,0,0,1-2.648,2.233A10.559,10.559,0,0,1,640.6,451.016Z" transform="translate(-583.24 -373.16)" fill="#3f3d56"/>
      <path id="Tracé_170" data-name="Tracé 170" d="M655.706,489.729q-.472-.381-.913-.8a11.264,11.264,0,0,0,4.641.193,11.7,11.7,0,0,0,5.327-2.316,10.247,10.247,0,0,0,2.026-2.118,8.372,8.372,0,0,1,2.2-2.531c2.127-1.314,4.673-.113,6.8.533a5.643,5.643,0,0,0,3.428.193,2.66,2.66,0,0,0,1.9-1.892c.068-.375.663-.33.594.047q-.02.106-.046.211a3.252,3.252,0,0,1-2.122,2.147,6.2,6.2,0,0,1-3.956-.145c-2.133-.65-4.921-1.988-6.852-.143-.814.778-1.314,1.832-2.048,2.682a11.08,11.08,0,0,1-2.246,1.99A12.426,12.426,0,0,1,655.706,489.729Z" transform="translate(-594.903 -408.051)" fill="#3f3d56"/>
    </g>
  </g>
</svg>
