<svg xmlns="http://www.w3.org/2000/svg" width="44.619" height="58.732" viewBox="0 0 44.619 58.732">
  <g id="design" transform="translate(-14.75 -10.172)">
    <path id="Tracé_147" data-name="Tracé 147" d="M31.527,12.513a1.934,1.934,0,0,0-2.336,1.427l-11.678,51.9a1.934,1.934,0,0,0,1.427,2.336h.389a2.067,2.067,0,0,0,1.946-1.557l11.678-51.9A1.864,1.864,0,0,0,31.527,12.513Z" transform="translate(0.731 0.594)" fill="#231f20" opacity="0.21"/>
    <path id="Tracé_148" data-name="Tracé 148" d="M49.777,65.965,39.4,14.061a1.985,1.985,0,1,0-3.893.779l10.381,51.9A1.956,1.956,0,0,0,47.831,68.3h.389A2.135,2.135,0,0,0,49.777,65.965Z" transform="translate(6.097 0.603)" fill="#231f20" opacity="0.2"/>
    <g id="Groupe_9" data-name="Groupe 9" transform="translate(35.113 43.471)" opacity="0.2">
      <path id="Tracé_149" data-name="Tracé 149" d="M32.446,61.333A2,2,0,0,1,30.5,59.387V37.846a1.946,1.946,0,1,1,3.893,0v21.54A2,2,0,0,1,32.446,61.333Z" transform="translate(-30.5 -35.9)" fill="#231f20"/>
    </g>
    <path id="Tracé_150" data-name="Tracé 150" d="M19.43,66.281H19.04a1.934,1.934,0,0,1-1.427-2.336l11.678-51.9a1.936,1.936,0,1,1,3.763.908l-11.678,51.9A2.109,2.109,0,0,1,19.43,66.281Z" transform="translate(0.761 0.028)" fill="#e0995e" stroke="#050505" stroke-miterlimit="10" stroke-width="0.5"/>
    <path id="Tracé_151" data-name="Tracé 151" d="M47.839,66.309a2.067,2.067,0,0,1-1.946-1.557l-10.381-51.9a1.985,1.985,0,0,1,3.893-.779l10.381,51.9a2.021,2.021,0,0,1-1.557,2.336Z" transform="translate(6.089 0)" fill="#e0995e" stroke="#050505" stroke-miterlimit="10" stroke-width="0.5"/>
    <path id="Tracé_152" data-name="Tracé 152" d="M32.446,59.333A2,2,0,0,1,30.5,57.387V35.846a1.946,1.946,0,1,1,3.893,0v21.54A2,2,0,0,1,32.446,59.333Z" transform="translate(4.613 6.976)" fill="#e0995e" stroke="#050505" stroke-miterlimit="10" stroke-width="0.5"/>
    <path id="Tracé_153" data-name="Tracé 153" d="M59.119,46.212a2.6,2.6,0,0,1-2.725,2.336H17.725A2.6,2.6,0,0,1,15,46.212V22.336A2.6,2.6,0,0,1,17.725,20H56.394a2.516,2.516,0,0,1,2.725,2.336Z" transform="translate(0 2.839)" fill="#231f20" opacity="0.2"/>
    <path id="Tracé_154" data-name="Tracé 154" d="M59.119,44.212a2.6,2.6,0,0,1-2.725,2.336H17.725A2.6,2.6,0,0,1,15,44.212V20.336A2.6,2.6,0,0,1,17.725,18H56.394a2.516,2.516,0,0,1,2.725,2.336Z" transform="translate(0 2.244)" fill="#fff" stroke="#050505" stroke-miterlimit="10" stroke-width="0.5"/>
    <g id="Groupe_10" data-name="Groupe 10" transform="translate(23.434 20.892)" opacity="0.2">
      <path id="Tracé_155" data-name="Tracé 155" d="M46.8,22.393H23.446a1.946,1.946,0,1,1,0-3.893H46.8a1.946,1.946,0,0,1,0,3.893Z" transform="translate(-21.5 -18.5)" fill="#231f20"/>
    </g>
    <g id="Groupe_11" data-name="Groupe 11" transform="translate(23.434 49.44)" opacity="0.2">
      <path id="Tracé_156" data-name="Tracé 156" d="M46.8,44.393H23.446a1.946,1.946,0,0,1,0-3.893H46.8a1.946,1.946,0,0,1,0,3.893Z" transform="translate(-21.5 -40.5)" fill="#231f20"/>
    </g>
    <path id="Tracé_157" data-name="Tracé 157" d="M46.8,20.893H23.446a1.946,1.946,0,1,1,0-3.893H46.8a1.946,1.946,0,0,1,0,3.893Z" transform="translate(1.934 1.946)" fill="#f5cf87" stroke="#050505" stroke-miterlimit="10" stroke-width="0.5"/>
    <path id="Tracé_158" data-name="Tracé 158" d="M46.8,42.893H23.446a1.946,1.946,0,1,1,0-3.893H46.8a1.946,1.946,0,0,1,0,3.893Z" transform="translate(1.934 8.493)" fill="#f5cf87" stroke="#050505" stroke-miterlimit="10" stroke-width="0.5"/>
    <path id="Tracé_159" data-name="Tracé 159" d="M19.948,41.988a3.054,3.054,0,0,1-1.038-.26A2.046,2.046,0,0,1,18.261,39c10.9-17.777,14.4-16.739,15.442-16.48,1.687.519,2.465,1.946,2.465,4.542,0,3.244,0,6.229.13,8.175a1.791,1.791,0,0,0,.389-.519c3.244-3.374,9.083-9.6,15.312-10.9a1.985,1.985,0,0,1,.779,3.893c-4.931,1.038-10.381,6.618-13.236,9.732l-1.427,1.427c-.519.519-2.076,2.076-3.763,1.3-2.076-.908-2.076-3.244-2.076-13.106v-.26c-2.206,1.817-6.618,7.656-10.64,14.274A2.218,2.218,0,0,1,19.948,41.988Z" transform="translate(0.892 3.559)" fill="#359aed"/>
  </g>
</svg>
