<?xml version="1.0" encoding="utf-8"?><svg viewBox="0 0 100 100" xmlns="http://www.w3.org/2000/svg" width="200px" height="200px" xmlns:xlink="http://www.w3.org/1999/xlink" style="width:100%;height:100%;background-color:rgb(255, 255, 255);animation-play-state:paused" ><g class="ldl-scale" style="transform-origin:50% 50% 0px;transform:rotate(0deg) scale(0.8);animation-play-state:paused" ><path stroke-miterlimit="10" stroke-linejoin="round" stroke-linecap="round" stroke-width="3" stroke="#323232" fill="none" d="M85.119 42.107C85.119 24.375 70.744 10 53.012 10S20.905 24.375 20.905 42.107v9.097l-5.745 9.438c-.766 1.258.14 2.87 1.613 2.87h4.132v13.734a3.26 3.26 0 0 0 4.151 3.137l11.367-3.226V90h36.923V66.952c7.186-5.888 11.773-14.83 11.773-24.845z" style="stroke:rgb(50, 50, 50);animation-play-state:paused" ></path>
<path stroke-miterlimit="10" stroke-linejoin="round" stroke-linecap="round" stroke-width="3" stroke="#76a4bd" fill="none" d="M50.182 27.636C40.14 27.636 32 35.777 32 45.818S40.14 64 50.182 64s18.182-8.14 18.182-18.182H50.182V27.636z" style="stroke:rgb(118, 164, 189);animation-play-state:paused" ></path>
<path stroke-miterlimit="10" stroke-linejoin="round" stroke-linecap="round" stroke-width="3" stroke="#e15c64" fill="none" d="M55.818 22v18.182H74C74 30.14 65.86 22 55.818 22z" style="stroke:rgb(225, 92, 100);animation-play-state:paused" ></path>
<metadata xmlns:d="https://loading.io/stock/" style="animation-play-state:paused" ><d:name style="animation-play-state:paused" >plan</d:name>


<d:tags style="animation-play-state:paused" >plan,design,time sharing,blueprint,brainstorming,think,thought,draft</d:tags>


<d:license style="animation-play-state:paused" >by</d:license>


<d:slug style="animation-play-state:paused" >6n9tuk</d:slug></metadata></g><!-- generated by https://loading.io/ --></svg>