<svg xmlns="http://www.w3.org/2000/svg" width="129.963" height="88.685" viewBox="0 0 129.963 88.685">
  <g id="Group" transform="translate(-203.019 -334.158)">
    <path id="Tracé_215" data-name="Tracé 215" d="M492.464-535.811c-55.74-6.593-78.863-35.162-90.95,6.593s-5.494,78.564,63.181,62.632S548.2-529.218,492.464-535.811Z" transform="translate(-193.611 885.635)" fill="#fff"/>
    <g id="undraw_people_re_8spw" transform="translate(213.009 336.742)">
      <path id="Tracé_186" data-name="Tracé 186" d="M686.088,160.692a.668.668,0,0,0,.484-1.158l-.046-.182.018-.044a1.794,1.794,0,0,1,3.31.012,15.933,15.933,0,0,1,1.4,3.988,5.309,5.309,0,0,1-.093,1.826A21.283,21.283,0,0,0,693.1,156.3,20.532,20.532,0,0,0,692.97,154q-.105-.936-.293-1.858a21.529,21.529,0,0,0-4.269-9.124,5.729,5.729,0,0,1-2.383-2.472,4.371,4.371,0,0,1-.4-1.194,5.393,5.393,0,0,0,.35-1.86c.162-.245.451-.367.628-.607.878-1.191,2.088-.983,2.719.635,1.349.681,1.362,1.81.534,2.9-.527.691-.6,1.626-1.061,2.366.048.061.1.12.144.181a21.665,21.665,0,0,1,2.262,3.583,9.007,9.007,0,0,1,.538-4.184A15.089,15.089,0,0,1,694.071,139a1.849,1.849,0,0,1,3.293.908l.005.047q-.189.107-.371.227a.906.906,0,0,0,.365,1.649l.018,0a9.007,9.007,0,0,1-.238,1.348c1.09,4.215-1.263,5.75-4.623,5.819-.074.038-.146.076-.221.112a22.117,22.117,0,0,1,1.19,5.6,20.973,20.973,0,0,1-.015,3.387l.006-.04a5.543,5.543,0,0,1,1.892-3.2c1.456-1.2,3.513-1.637,5.084-2.6a1.04,1.04,0,0,1,1.593,1.012l-.006.042a6.1,6.1,0,0,0-.683.329q-.189.107-.371.227a.906.906,0,0,0,.365,1.649l.018,0,.038.006a9.024,9.024,0,0,1-1.66,2.6c-.682,3.68-3.609,4.029-6.74,2.957h0a22.109,22.109,0,0,1-1.485,4.336h-5.306c-.019-.059-.036-.12-.053-.179a6.028,6.028,0,0,0,1.468-.087c-.394-.483-.787-.97-1.181-1.453a.339.339,0,0,1-.025-.029c-.2-.247-.4-.493-.6-.74h0a8.833,8.833,0,0,1,.259-2.249Z" transform="translate(-619.396 -135.563)" fill="#f2f2f2"/>
      <path id="Tracé_187" data-name="Tracé 187" d="M798.187,187.174c-.987-3.6,6.97-6.681,9.06-3.785a2.279,2.279,0,0,1,1.857-.536,3.842,3.842,0,0,1,1.311.748,5.179,5.179,0,0,1,1.473,1.483,1.763,1.763,0,0,1-.066,1.976,4.4,4.4,0,0,1-2,.806c-.384.078-.707.141-.985.187a1.884,1.884,0,0,1-.328-1.246,1.529,1.529,0,0,0-.667,1.122c-.008.093,3.105,11.546,3.105,11.546a6.789,6.789,0,0,1-1.175.528,14.77,14.77,0,0,1-1.832-3.992,12.792,12.792,0,0,0,.035,2.842,15.625,15.625,0,0,0,.268,1.574c-3.7.8-9.262.536-11.682-2.86q0-.021,0-.042a.578.578,0,0,0-1.116-.2c-.059.15-.113.279-.161.383C794.579,195.186,795.491,192.268,798.187,187.174Z" transform="translate(-714.46 -175.624)" fill="#2f2e41"/>
      <path id="Tracé_188" data-name="Tracé 188" d="M770.94,679.207v.118A.5.5,0,0,1,770.94,679.207Z" transform="translate(-693.507 -607.354)" fill="#2f2e41"/>
      <path id="Tracé_189" data-name="Tracé 189" d="M798.558,523.765a2.033,2.033,0,0,1,.286-.056Q798.678,523.736,798.558,523.765Z" transform="translate(-717.503 -472.268)" fill="#2f2e41"/>
      <path id="Tracé_190" data-name="Tracé 190" d="M797.919,524.154l.084-.021C797.975,524.14,797.948,524.145,797.919,524.154Z" transform="translate(-716.948 -472.635)" fill="#2f2e41"/>
      <path id="Tracé_191" data-name="Tracé 191" d="M799.052,550.352H785.494a1.078,1.078,0,0,1-.29-1.328,1.631,1.631,0,0,0-.355-1.626,2.306,2.306,0,0,1-.465-2.125c.359-1.255-1.048-4.8-1.048-4.8s-.759,4.573-1.689,9.874H768.753a2.4,2.4,0,0,1,0-2.427c.751-1.274,0-1.518,0-1.518a2.589,2.589,0,0,1,0-2.461c.751-1.035,0-5.262,0-5.262.028.187.242-.153.572-.865.5-1.084,1.269-3.033,2.043-5.3.554-1.615,1.112-3.392,1.579-5.13h0q.184-.685.348-1.357c.214-.879.4-1.733.537-2.535a11.441,11.441,0,0,0,.17-4.176c-.193-.8-.614-1.246-1.341-1.17.39-.065.961-.126,1.664-.184l.394-.032c5.246-.4,16.5-.624,16.5-.624l3.448,6.174,4.366,7.821S798.917,541.8,799.052,550.352Z" transform="translate(-691.32 -466.713)" fill="#2f2e41"/>
      <path id="Tracé_192" data-name="Tracé 192" d="M787.707,302.868l-7.943-1.685-1.577,3.175-5.311,3.075s3.424,14,3.4,15.967c-.049,5-8.047,16.2-2.006,15.341s7.268-4.473,9.207-3.9c1.749.515,3.885,2.805,5.314,1.167s1.933.254,2.837.319c.43.031.171-2.069,1.252.065s6.813-.739,4.87-2.681c-3.236-3.236-3.893-27.088-3.893-27.088l-3.6-1.108Z" transform="translate(-694.446 -278.951)" fill="#e6e6e6"/>
      <path id="Tracé_193" data-name="Tracé 193" d="M755.962,627.269a1.907,1.907,0,0,0-.2-2.652,1.83,1.83,0,0,0-.245-.177l1.328-6.518-3.07-1.838-.854,9.126a1.9,1.9,0,0,0,.438,2.28,1.82,1.82,0,0,0,2.567-.182Z" transform="translate(-677.683 -552.517)" fill="#a0616a"/>
      <path id="Tracé_194" data-name="Tracé 194" d="M764.649,350.227c-.019-.21-.286-.3-.657-.436a4.062,4.062,0,0,1-1.05-.5c-.82-.592-.5-1.212-.051-2.068.087-.167.178-.34.263-.52.253-.533-.149-2.734-1.2-6.542-.323-1.172-.322-2-.545-2.55s-.667-.82-1.88-.877a5.546,5.546,0,0,0-3.993,1.419l-.089.082q-.083.078-.163.16a5.542,5.542,0,0,0-1.611,3.81l-.006.244-.25,11.634-.7,10.21-.97,14.064.718.035,2.866.143.348.017.825-3.459.992-4.162.365-1.529,1.132-4.743.528-2.217.323-1.354.131-.553.641-2.687c.015-.057,1.489-5.875,3.19-6.848C764.438,350.64,764.667,350.429,764.649,350.227Z" transform="translate(-676.836 -309.832)" fill="#e6e6e6"/>
      <path id="Tracé_195" data-name="Tracé 195" d="M982.876,625.617a1.907,1.907,0,0,1-.09-2.658,1.826,1.826,0,0,1,.224-.2l-2.02-6.338,2.855-2.157,1.829,8.981a1.9,1.9,0,0,1-.191,2.314,1.82,1.82,0,0,1-2.572.095Z" transform="translate(-875.988 -550.934)" fill="#a0616a"/>
      <path id="Tracé_196" data-name="Tracé 196" d="M909.605,374.863s-2.227-7.835-1.548-8.683-1.327-1.014-.462-2.593-.329-1.844-.329-1.844l-.647-3.632-1.157-8.921-.035-.265-.337-2.6a5.558,5.558,0,0,0-2.192-3.756l-.093-.068q-.214-.154-.437-.285a5.548,5.548,0,0,0-3.689-.7c-2.4.374-1.653,1.269-2.042,3.667-.633,3.9-.8,6.13-.488,6.634.1.17.213.332.317.488.536.8.923,1.385.171,2.063a4.1,4.1,0,0,1-.99.606c-.354.171-.609.294-.606.5s.254.388.923.68c.811.355,1.682,1.7,2.395,3.067a33.855,33.855,0,0,1,1.512,3.4L906,379.869l1,2.812.345-.055,2.833-.449.71-.112Z" transform="translate(-801.32 -313.933)" fill="#e6e6e6"/>
      <circle id="Ellipse_37" data-name="Ellipse 37" cx="6.481" cy="6.481" r="6.481" transform="translate(83.429 9.152)" fill="#a0616a"/>
      <path id="Tracé_197" data-name="Tracé 197" d="M771.241,191.024c-.987-3.6,6.97-6.681,9.06-3.785a2.28,2.28,0,0,1,1.857-.536,3.842,3.842,0,0,1,1.311.748,5.179,5.179,0,0,1,1.473,1.483,1.763,1.763,0,0,1-.066,1.976,4.4,4.4,0,0,1-2,.806c-.384.078-.707.141-.985.187a1.883,1.883,0,0,1-.328-1.246,1.529,1.529,0,0,0-.667,1.122c-.008.093,3.105,11.546,3.105,11.546a6.789,6.789,0,0,1-1.175.528A14.772,14.772,0,0,1,781,199.862a12.792,12.792,0,0,0,.035,2.842,15.642,15.642,0,0,0,.268,1.574c-3.7.8-9.262.536-11.682-2.86,0-.014,0-.028,0-.042a.578.578,0,0,0-1.116-.2c-.059.15-.113.279-.161.383C767.633,199.036,768.545,196.117,771.241,191.024Z" transform="translate(-691.051 -178.968)" fill="#2f2e41"/>
      <path id="Tracé_198" data-name="Tracé 198" d="M810.435,197.849" transform="translate(-727.821 -189.181)" fill="#2f2e41"/>
      <path id="Tracé_199" data-name="Tracé 199" d="M441.39,231.692a.668.668,0,0,1-.484-1.158l.046-.182-.018-.044a1.794,1.794,0,0,0-3.31.012,15.931,15.931,0,0,0-1.4,3.988,5.307,5.307,0,0,0,.093,1.826,21.282,21.282,0,0,1-1.936-8.839,20.54,20.54,0,0,1,.127-2.292q.106-.936.293-1.858a21.528,21.528,0,0,1,4.269-9.124,5.729,5.729,0,0,0,2.383-2.472,4.37,4.37,0,0,0,.4-1.194,5.393,5.393,0,0,1-.35-1.86c-.162-.245-.451-.367-.628-.607-.878-1.191-2.088-.983-2.719.635-1.349.681-1.362,1.81-.534,2.9.527.691.6,1.626,1.061,2.366-.048.061-.1.12-.145.181a21.667,21.667,0,0,0-2.262,3.583,9.007,9.007,0,0,0-.538-4.184A15.088,15.088,0,0,0,433.408,210a1.849,1.849,0,0,0-3.293.908l-.005.047q.189.107.371.227a.906.906,0,0,1-.365,1.649l-.019,0a9.022,9.022,0,0,0,.238,1.348c-1.09,4.215,1.263,5.75,4.623,5.819.074.038.146.076.221.112a22.115,22.115,0,0,0-1.19,5.6,20.973,20.973,0,0,0,.015,3.387l-.006-.04a5.543,5.543,0,0,0-1.892-3.2c-1.456-1.2-3.513-1.637-5.084-2.6a1.04,1.04,0,0,0-1.593,1.012l.006.042a6.09,6.09,0,0,1,.683.329q.189.107.371.227a.906.906,0,0,1-.365,1.649l-.018,0-.038.006a9.025,9.025,0,0,0,1.66,2.6c.681,3.68,3.609,4.029,6.74,2.957h0a22.11,22.11,0,0,0,1.485,4.336h5.306c.019-.059.036-.12.053-.179a6.028,6.028,0,0,1-1.468-.087c.394-.483.787-.97,1.181-1.453a.341.341,0,0,0,.025-.029c.2-.247.4-.493.6-.74h0a8.829,8.829,0,0,0-.259-2.249Z" transform="translate(-393.34 -197.243)" fill="#f2f2f2"/>
      <path id="Tracé_200" data-name="Tracé 200" d="M330.483,190.979c-.12.281-3.833.251-4,.5-1.311,1.929,3.415,10.137,2.1,12.069l-.183.218a8.634,8.634,0,0,0,1.229-.693c.035-.791.07-1.584.108-2.375a6.526,6.526,0,0,1,.941,1.654,10.71,10.71,0,0,1,1.864-1.4,8.207,8.207,0,0,1,1.813-1.493Z" transform="translate(-307.189 -183.213)" fill="#2f2e41"/>
      <path id="Tracé_201" data-name="Tracé 201" d="M206.99,308.131a3.075,3.075,0,0,0-4.659,1.819l-5.642,14.7-9.7-5.506a3,3,0,1,0-1.873,2.987c2.043,2.18,10.9,11.118,14.563,7.625,3.081-2.935,7.528-14.312,8.6-18.24A3.075,3.075,0,0,0,206.99,308.131Z" transform="translate(-181 -284.554)" fill="#ffb6b6"/>
      <path id="Tracé_202" data-name="Tracé 202" d="M117.341,349.883l1.781,8.048,13.02,1.178,1.2-7.008Z" transform="translate(-101.946 -304.063)" fill="#ffb6b6"/>
      <path id="Tracé_203" data-name="Tracé 203" d="M260.942,537.324c-.006.115-.013.23-.021.345-.125,1.668-.268,3.591-.422,5.7-.244,3.345-.516,7.153-.791,11.138H232.4l5.3-15.92s2.139-1.177,1.05-3.155,1.054-.4,1.073-3.227a13.07,13.07,0,0,1,1.94-5.83l.315-4.277.18,0,14.212.237.259,0,.436,3.672a16.233,16.233,0,0,1,3.782,11.311Z" transform="translate(-225.658 -470.866)" fill="#2f2e41"/>
      <path id="Tracé_204" data-name="Tracé 204" d="M301.953,279.506l6.481-.334,3.01,4.756s5.664.947,5.271,7.621-6.891,12.53-6.891,12.53l.278-.952-.482,1.379.062.774.658.82.068.848-.583,1.341h0a.766.766,0,0,1-.727,1.168l-9.364-.938c-.213-.586-.384-1.288-1.239-.12l-.882-.085-3.667-.355-.216-.786a3.046,3.046,0,0,1,.5-2.627h0a4.018,4.018,0,0,1,.232-3.017l.018-.035.389-.325s-4.26-6.4.63-11.222l1.963-3.337,2.2-2.68Z" transform="translate(-278.432 -259.83)" fill="#6c63ff"/>
      <circle id="Ellipse_38" data-name="Ellipse 38" cx="6.146" cy="6.146" r="6.146" transform="translate(18.989 4.578)" fill="#ffb6b6"/>
      <path id="Tracé_205" data-name="Tracé 205" d="M320.309,166.5a2.96,2.96,0,0,1-.991-1.626,6.359,6.359,0,0,0,.088,2.322c-.333.25-.656.488-.961.7a6.527,6.527,0,0,0-.941-1.654c-.038.791-.073,1.584-.108,2.375a8.625,8.625,0,0,1-1.229.693l.183-.218c1.311-1.932-2.082-5.487-.771-7.417.368-.54-1.294-4.812-2.56-5-1.126-.17-1.078.155-2.169.393a5.459,5.459,0,0,0-.523-1.354,4.473,4.473,0,0,1-.043,1.426c-.388.015-.693-.232-1.106-.3-2.635-.4-2.367-3.253-1.634-4.156s3.178-1.171,4.3-1.464c.1-.1.335-.038.438-.133a7.527,7.527,0,0,1,7.641-1.427,8,8,0,0,1,5.383,5.525l.254,2.229a18.146,18.146,0,0,1-.254,4.777C324.551,165.02,322.934,163.61,320.309,166.5Z" transform="translate(-290.507 -146.924)" fill="#2f2e41"/>
      <path id="Tracé_206" data-name="Tracé 206" d="M429.564,358.246l-.242-18.843a3.042,3.042,0,0,0-3.041-2.994h0a3.042,3.042,0,0,0-3.037,3.2l.851,19.566.016,11.911a2.654,2.654,0,1,0,3.259.992Z" transform="translate(-390.801 -309.554)" fill="#ffb6b6"/>
      <path id="Tracé_207" data-name="Tracé 207" d="M530.6,616.533s-.374,6.73-.546,10.568H517.168c-.265-3.493-.354-6.059-.354-6.059l-.7,6.059H503.087l-.807-11.222,3.9-9.67s21.141-1.466,23.1.394S530.6,616.533,530.6,616.533Z" transform="translate(-460.115 -543.461)" fill="#2f2e41"/>
      <circle id="Ellipse_39" data-name="Ellipse 39" cx="7.037" cy="7.037" r="7.037" transform="translate(52.053 2.386)" fill="#ffb6b6"/>
      <path id="Tracé_208" data-name="Tracé 208" d="M586.837,138.134c-.723.33-1.191,2.716-1.759,2.162s-.53-1.277-1.3-1.482a2.6,2.6,0,0,0-1.848.323c-.1.053-.2.11-.294.167-.063-.042-.125-.081-.193-.118A2.236,2.236,0,0,0,579.8,139a2.194,2.194,0,0,1,1.084.8c-.189.127-.38.253-.576.366-1.634.943-3.96-1.108-5.68-1.878,1.078,2.022.547,2.859-.389,4.951l-.032.119c.053-.524-1.569-.915-1.475-.177a8.889,8.889,0,0,0,.774,2.151,9.93,9.93,0,0,1-2.784-7.29,3.854,3.854,0,0,1,.326-1.621,1.266,1.266,0,0,1,1.411-.632,4.665,4.665,0,0,1,7.023-4.269,17.822,17.822,0,0,1,1.858,1.44,3.88,3.88,0,0,0,2.117.945,3.069,3.069,0,0,1,1.468.16c.5.3.58.926.655,1.529a2.234,2.234,0,0,0-1.2.5,2.185,2.185,0,0,1,1.316.282l.022.012C585.979,137.384,585.953,137.6,586.837,138.134Z" transform="translate(-519.546 -130.998)" fill="#2f2e41"/>
      <path id="Tracé_209" data-name="Tracé 209" d="M508.668,311.795c5.992-7.014,3.968-15.935,1.59-24.941l.453-13.3a4.07,4.07,0,0,1,1.842-3.269l6.117-4,2.381-3.443,6.563.656,3.64,3.849,4.029,3.076a6.674,6.674,0,0,1,2.467,6.746L533.893,294.6s1.612,9.038.628,10.036-3.519,0-1.509,1.121c2.413,1.345,4.606,1.1,3.385,2.318s.324,2.918.324,2.918Z" transform="translate(-465.665 -245.643)" fill="#6c63ff"/>
      <path id="Tracé_210" data-name="Tracé 210" d="M498.036,658.8l1-7.117-3.986-1.138-.788,7.562a2.406,2.406,0,1,0,3.776.693Z" transform="translate(-452.471 -582.456)" fill="#ffb6b6"/>
      <path id="Tracé_211" data-name="Tracé 211" d="M500,298.842s-11.346,3.693-11.617,6.395-.181,4.356-1.378,15.168l.063,29.125s7.607,1.629,6.827-.113a3.948,3.948,0,0,1-.508-2.561,2.265,2.265,0,0,0,1.223-2.688c-.408-2.045,1.639-12.177,1.639-12.177l1.292-18.172Z" transform="translate(-446.841 -276.917)" fill="#6c63ff"/>
      <path id="Tracé_212" data-name="Tracé 212" d="M689.062,657.339l-.532-7.167,4.052-.875.292,7.6a2.406,2.406,0,1,1-3.813.444Z" transform="translate(-621.918 -581.371)" fill="#ffb6b6"/>
      <path id="Tracé_213" data-name="Tracé 213" d="M661.99,293.078s11.081,4.427,11.174,7.14-.1,4.359.384,15.226L671.581,344.5s-7.7,1.128-6.8-.559a3.948,3.948,0,0,0,.674-2.522,2.265,2.265,0,0,1-1.044-2.762c.541-2.014-.84-12.258-.84-12.258l-.1-18.218Z" transform="translate(-598.861 -271.91)" fill="#6c63ff"/>
    </g>
  </g>
</svg>
