<?xml version="1.0" encoding="utf-8"?><svg xml:space="preserve" viewBox="0 0 100 100" y="0" x="0" xmlns="http://www.w3.org/2000/svg" id="Layer_1" version="1.1" width="200px" height="200px" xmlns:xlink="http://www.w3.org/1999/xlink" style="width:100%;height:100%;background-color:rgb(255, 255, 255);animation-play-state:paused" ><g class="ldl-scale" style="transform-origin:50% 50% 0px;transform:rotate(0deg) scale(0.8);animation-play-state:paused" ><path stroke-miterlimit="10" stroke-width="3.5" stroke="#333" fill="#f47e5f" d="M32.792 90.037l-4.743-2.738c-9.915-5.724-11.871-18.866-4.819-24.787l7.161-6.012a10.767 10.767 0 0 0 3.298-4.789l2.308-6.758c2.705-7.918 12.065-7.976 21.216-2.692h0c9.151 5.283 13.781 13.418 8.276 19.72l-4.698 5.378a10.76 10.76 0 0 0-2.499 5.251l-1.626 9.207c-1.6 9.068-13.959 13.944-23.874 8.22z" style="stroke:rgb(51, 51, 51);fill:rgb(244, 126, 95);animation-play-state:paused" ></path>
<path d="M68.032 16.435l6.136 3.542-25.052 43.39-6.136-3.542z" stroke-miterlimit="10" stroke-width="3.49993" stroke="#333" fill="#f7b26a" style="stroke:rgb(51, 51, 51);fill:rgb(247, 178, 106);animation-play-state:paused" ></path>
<circle r="8.484" stroke="#333" fill="#666766" stroke-miterlimit="10" stroke-width="3.5" cy="65.748" cx="43.653" transform="rotate(-60 43.653 65.75)" style="stroke:rgb(51, 51, 51);fill:rgb(102, 103, 102);animation-play-state:paused" ></circle>
<path stroke-miterlimit="10" stroke-width="3.5" stroke="#333" fill="#f7b26a" d="M69.341 26.06l-4.161-2.403c-1.795-1.036-2.683-2.916-2.017-4.272l5.189-10.578c.713-1.454 2.923-1.741 4.847-.63l5.538 3.198c1.924 1.111 2.781 3.168 1.878 4.513l-6.566 9.783c-.841 1.254-2.913 1.425-4.708.389z" style="stroke:rgb(51, 51, 51);fill:rgb(247, 178, 106);animation-play-state:paused" ></path>
<path d="M29.851 75.483l12.272 7.085" stroke-width="3.5" stroke="#333" fill="none" stroke-miterlimit="10" style="stroke:rgb(51, 51, 51);animation-play-state:paused" ></path>
<metadata xmlns:d="https://loading.io/stock/" style="animation-play-state:paused" ><d:name style="animation-play-state:paused" >band</d:name>


<d:tags style="animation-play-state:paused" >band,guitar,bass,musician,music,musical instrument,composer,player,rock star,pop music</d:tags>


<d:license style="animation-play-state:paused" >by</d:license>


<d:slug style="animation-play-state:paused" >6azdaa</d:slug></metadata></g><!-- generated by https://loading.io/ --></svg>