<svg xmlns="http://www.w3.org/2000/svg" width="90.221" height="98.514" viewBox="0 0 90.221 98.514">
  <g id="Livres" transform="translate(-9 -460.244)">
    <circle id="Ellipse_41" data-name="Ellipse 41" cx="43.356" cy="43.356" r="43.356" transform="translate(12.509 472.045)" fill="#6c63ff" opacity="0.3"/>
    <path id="Tracé_230" data-name="Tracé 230" d="M382.378,85.873,353.51,120.9l42.724,50.422,28.483-33.486Z" transform="translate(-344.317 374.371)" fill="#6c63ff"/>
    <path id="Tracé_231" data-name="Tracé 231" d="M382.378,85.873,353.51,120.9l42.724,50.422,28.483-33.486Z" transform="translate(-344.317 374.371)" opacity="0.1"/>
    <path id="Tracé_232" data-name="Tracé 232" d="M439.739,299.986h0a14.508,14.508,0,0,1,2.354-3.143l26.514-26.88s9.238-1.54,11.162,3.079L445.9,300.756Z" transform="translate(-429.392 195.668)" fill="#f2f2f2"/>
    <path id="Tracé_233" data-name="Tracé 233" d="M434.8,296.991l39.26,60.045s3.849,2.694,7.7,1.155l40.222-27.136-42.724-64.663-38.49,30.022Z" transform="translate(-425.805 198.086)" fill="#6c63ff"/>
    <rect id="Rectangle_69" data-name="Rectangle 69" width="30.337" height="0.624" transform="matrix(0.812, -0.584, 0.584, 0.812, 24.021, 491.55)" fill="#3f3d56"/>
    <rect id="Rectangle_70" data-name="Rectangle 70" width="0.624" height="58.607" transform="matrix(0.834, -0.552, 0.552, 0.834, 23.175, 498.521)" fill="#3f3d56"/>
    <rect id="Rectangle_72" data-name="Rectangle 72" width="0.624" height="58.619" transform="translate(52.816 475.048) rotate(-34.838)" fill="#3f3d56"/>
    <rect id="Rectangle_73" data-name="Rectangle 73" width="41.34" height="0.385" transform="translate(12.527 493.204) rotate(-42.545)" fill="#3f3d56"/>
    <rect id="Rectangle_74" data-name="Rectangle 74" width="42.461" height="0.385" transform="translate(13.69 493.592) rotate(-41.439)" fill="#3f3d56"/>
    <rect id="Rectangle_75" data-name="Rectangle 75" width="43.018" height="0.385" transform="matrix(0.768, -0.64, 0.64, 0.768, 14.468, 493.594)" fill="#3f3d56"/>
    <rect id="Rectangle_71" data-name="Rectangle 71" width="32.487" height="0.624" transform="translate(59.432 548.524) rotate(-36.344)" fill="#3f3d56"/>
  </g>
</svg>
