<?xml version="1.0" encoding="utf-8"?><svg xml:space="preserve" viewBox="0 0 100 100" y="0" x="0" xmlns="http://www.w3.org/2000/svg" id="Layer_1" version="1.1" width="200px" height="200px" xmlns:xlink="http://www.w3.org/1999/xlink" style="width:100%;height:100%;background-color:rgb(255, 255, 255);animation-play-state:paused" ><g class="ldl-scale" style="transform-origin:50% 50% 0px;transform:rotate(0deg) scale(0.8);animation-play-state:paused" ><path stroke-miterlimit="10" stroke-width="3.5" stroke="#333" fill="#666766" stroke-linejoin="round" d="M81.116 28.727h-8.83l-3.606-9.281a7.684 7.684 0 0 0-7.163-4.901H48.613a7.684 7.684 0 0 0-7.163 4.901l-3.606 9.281h-18.96A7.884 7.884 0 0 0 11 36.611V77.57a7.884 7.884 0 0 0 7.884 7.884h62.231a7.884 7.884 0 0 0 7.884-7.884V36.611a7.883 7.883 0 0 0-7.883-7.884z" style="stroke:rgb(51, 51, 51);fill:rgb(102, 103, 102);animation-play-state:paused" ></path>
<path d="M25.688 41.896v32.416" stroke-miterlimit="10" stroke-linecap="round" stroke-width="3.5" stroke="#333" stroke-linejoin="round" fill="none" style="stroke:rgb(51, 51, 51);animation-play-state:paused" ></path>
<path stroke-linejoin="round" stroke="#333" stroke-linecap="round" fill="#333" stroke-miterlimit="10" stroke-width="3.5" d="M31.766 28.727H17.584v-3.039a3.04 3.04 0 0 1 3.039-3.039h8.104a3.04 3.04 0 0 1 3.039 3.039v3.039z" style="stroke:rgb(51, 51, 51);fill:rgb(51, 51, 51);animation-play-state:paused" ></path>
<circle stroke-miterlimit="10" stroke-width="3.5" stroke="#333" fill="#666766" stroke-linejoin="round" r="21.273" cy="57.091" cx="55.065" style="stroke:rgb(51, 51, 51);fill:rgb(102, 103, 102);animation-play-state:paused" ></circle>
<circle stroke-miterlimit="10" stroke-linejoin="round" stroke-width="3.5" stroke="#333" fill="#e0e0e0" r="14.688" cy="57.091" cx="55.065" style="stroke:rgb(51, 51, 51);fill:rgb(224, 224, 224);animation-play-state:paused" ></circle>
<path d="M48.987 28.727h13.169" stroke-miterlimit="10" stroke-linecap="round" stroke-width="3.5" stroke="#333" stroke-linejoin="round" fill="none" style="stroke:rgb(51, 51, 51);animation-play-state:paused" ></path>
<circle fill="#f0af6b" r="3.039" cy="37.844" cx="78.364" style="fill:rgb(240, 175, 107);animation-play-state:paused" ></circle>
<metadata xmlns:d="https://loading.io/stock/" style="animation-play-state:paused" ><d:name style="animation-play-state:paused" >camera</d:name>


<d:tags style="animation-play-state:paused" >camera,photographer,documentary,film,record,image</d:tags>


<d:license style="animation-play-state:paused" >by</d:license>


<d:slug style="animation-play-state:paused" >lcify1</d:slug></metadata></g><!-- generated by https://loading.io/ --></svg>