<svg xmlns="http://www.w3.org/2000/svg" width="146.169" height="109.004" viewBox="0 0 146.169 109.004">
  <g id="Smiley_face" data-name="Smiley face" transform="translate(-35.04 -40.705)">
    <path id="Tracé_1" data-name="Tracé 1" d="M36.464,93.674c.437-41.189,25.39-51.565,70.877-51.551,45.531.014,70.458,10.407,70.9,51.551.451,42.4-25.835,53.259-71.973,53.065C60.69,146.545,36.025,135.042,36.464,93.674Z" transform="translate(0.774 0.774)" fill="#a4d4b2" fill-rule="evenodd"/>
    <path id="Tracé_2" data-name="Tracé 2" d="M36.465,77.726c.023-2.207.121-4.318.283-6.352,2.864,34.62,27.156,44.575,69.517,44.756,42.971.179,68.718-9.229,71.685-44.776.165,2.04.264,4.159.287,6.373.451,42.4-25.835,53.259-71.973,53.065C60.691,130.6,36.025,119.094,36.465,77.726Z" transform="translate(0.774 16.722)" fill="#1a1818" fill-rule="evenodd" opacity="0.15"/>
    <path id="Tracé_3" data-name="Tracé 3" d="M35.046,94.43c.227-21.425,6.92-34.9,19.55-43.058,12.377-8,30.367-10.676,53.518-10.668,23.167.006,41.158,2.7,53.545,10.7,12.629,8.164,19.316,21.625,19.544,43.022.235,22.04-6.572,35.945-19.512,44.362C149,147.048,130.509,149.8,107.03,149.706c-23.215-.1-41.172-3.124-53.384-11.472-12.445-8.505-18.829-22.306-18.6-43.8ZM56.969,55.07C45.643,62.388,39.64,74.7,39.431,94.464c-.212,19.869,5.518,32.506,16.691,40.143,11.4,7.793,28.568,10.618,50.926,10.714,22.659.094,40.379-2.482,52.252-10.207,11.625-7.563,17.736-20.289,17.518-40.65-.21-19.745-6.209-32.056-17.532-39.376-11.569-7.479-28.809-9.992-51.172-10C85.781,45.082,68.549,47.588,56.969,55.07Z" transform="translate(0 0)" fill="#1a1818" fill-rule="evenodd"/>
    <path id="Tracé_4" data-name="Tracé 4" d="M68.3,75.291a2.194,2.194,0,0,1,3.317-2.872,23.414,23.414,0,0,0,2.442,2.448,25.206,25.206,0,0,0,32.41,0,23.507,23.507,0,0,0,2.453-2.448,2.194,2.194,0,0,1,3.318,2.872,28.179,28.179,0,0,1-2.9,2.895,29.6,29.6,0,0,1-38.152,0A28.043,28.043,0,0,1,68.3,75.291Z" transform="translate(17.855 16.89)" fill="#1a1818" fill-rule="evenodd"/>
    <path id="Tracé_5" data-name="Tracé 5" d="M65.83,79.152l-9.362,0A2.6,2.6,0,0,1,54.657,74.7a8.894,8.894,0,0,1,12.252-.711,8.573,8.573,0,0,1,.879.878,2.594,2.594,0,0,1-1.958,4.286Z" transform="translate(10.275 17.008)" fill="#eb505e" fill-rule="evenodd"/>
    <path id="Tracé_6" data-name="Tracé 6" d="M113.32,79.155l-9.363,0a2.6,2.6,0,0,1-1.8-4.471,8.626,8.626,0,0,1,.713-.7,8.918,8.918,0,0,1,11.527,0,8.488,8.488,0,0,1,.878.867,2.6,2.6,0,0,1-1.958,4.3Z" transform="translate(36.185 17.008)" fill="#eb505e" fill-rule="evenodd"/>
    <g id="Groupe_1" data-name="Groupe 1" transform="translate(61.802 66.762)">
      <path id="Tracé_7" data-name="Tracé 7" d="M61.978,76.81a9.623,9.623,0,1,0-9.623-9.623A9.641,9.641,0,0,0,61.978,76.81Z" transform="translate(-52.355 -57.564)" fill="#1a1818" fill-rule="evenodd"/>
      <path id="Tracé_8" data-name="Tracé 8" d="M59.076,65.578a3.084,3.084,0,1,0-3.085-3.083A3.09,3.09,0,0,0,59.076,65.578Z" transform="translate(-50.371 -56.557)" fill="#fff" fill-rule="evenodd"/>
      <path id="Tracé_9" data-name="Tracé 9" d="M56.565,68.073a1.917,1.917,0,1,0-1.917-1.917A1.921,1.921,0,0,0,56.565,68.073Z" transform="translate(-51.104 -53.923)" fill="#fff" fill-rule="evenodd"/>
    </g>
    <g id="Groupe_2" data-name="Groupe 2" transform="translate(135.202 66.762)">
      <path id="Tracé_10" data-name="Tracé 10" d="M109.467,76.81a9.623,9.623,0,1,0-9.623-9.623A9.641,9.641,0,0,0,109.467,76.81Z" transform="translate(-99.844 -57.564)" fill="#1a1818" fill-rule="evenodd"/>
      <path id="Tracé_11" data-name="Tracé 11" d="M106.563,65.578a3.084,3.084,0,1,0-3.083-3.083A3.09,3.09,0,0,0,106.563,65.578Z" transform="translate(-97.86 -56.557)" fill="#fff" fill-rule="evenodd"/>
      <path id="Tracé_12" data-name="Tracé 12" d="M104.054,68.073a1.917,1.917,0,1,0-1.918-1.917A1.92,1.92,0,0,0,104.054,68.073Z" transform="translate(-98.593 -53.923)" fill="#fff" fill-rule="evenodd"/>
    </g>
  </g>
</svg>
